<svg width="30" height="31" viewBox="0 0 30 31" fill="none" xmlns="http://www.w3.org/2000/svg">
<path d="M21.5022 5.47868L24.4197 3.32851C21.8446 1.24782 18.5678 0 14.999 0V3.4655C17.4103 3.4655 19.6498 4.20903 21.5022 5.47868Z" fill="url(#paint0_linear)"/>
<path d="M29.9999 15.0007C29.9999 14.0835 29.9175 13.1851 29.7597 12.3135L26.5304 14.693C26.5334 14.7952 26.5344 14.8975 26.5344 15.0007C26.5344 18.3878 25.0672 21.4383 22.7344 23.5508L25.0622 26.1238C28.0949 23.38 29.9999 19.4132 29.9999 15.0007Z" fill="#21A038"/>
<path d="M14.9987 26.5364C11.6116 26.5364 8.56101 25.0692 6.44855 22.7363L3.87549 25.0642C6.62029 28.0959 10.5871 30.0009 14.9987 30.0009V26.5364Z" fill="url(#paint1_linear)"/>
<path d="M7.26455 6.45098L4.93668 3.87793C1.90498 6.62273 0 10.5895 0 15.0011H3.46549C3.4645 11.614 4.93171 8.56344 7.26455 6.45098Z" fill="url(#paint2_linear)"/>
<path d="M3.46451 15.0005C3.46451 14.8069 3.46947 14.6153 3.4794 14.4237L0.0188615 14.251C0.00694916 14.4992 0 14.7493 0 15.0005C0 19.143 1.67864 22.8934 4.39366 25.6074L6.84762 23.1535C4.75799 21.0648 3.46451 18.1811 3.46451 15.0005Z" fill="url(#paint3_linear)"/>
<path d="M14.9993 3.4655C15.1929 3.4655 15.3844 3.47245 15.576 3.48138L15.7488 0.0188616C15.5006 0.00694916 15.2504 0 14.9993 0C10.8568 0 7.10636 1.67865 4.39233 4.39367L6.84628 6.84761C8.93491 4.75898 11.8197 3.4655 14.9993 3.4655Z" fill="url(#paint4_linear)"/>
<path d="M14.9992 26.5374C14.8057 26.5374 14.6141 26.5324 14.4225 26.5225L14.2498 29.983C14.4979 29.995 14.7481 30.0019 14.9992 30.0019C19.1418 30.0019 22.8922 28.3233 25.6062 25.6082L23.1522 23.1543C21.0636 25.2429 18.1798 26.5374 14.9992 26.5374Z" fill="url(#paint5_linear)"/>
<path d="M26.8709 5.83008C27.5797 6.74534 28.1852 7.74499 28.6687 8.81213L15.0003 18.885L9.29028 15.3054V10.999L15.0003 14.5787L26.8709 5.83008Z" fill="#21A038"/>
<defs>
<linearGradient id="paint0_linear" x1="14.2741" y1="1.16173" x2="23.7028" y2="4.07089" gradientUnits="userSpaceOnUse">
<stop offset="0.0566" stop-color="#0291EB"/>
<stop offset="0.79" stop-color="#0C8ACB"/>
</linearGradient>
<linearGradient id="paint1_linear" x1="4.74446" y1="24.643" x2="15.0077" y2="28.4777" gradientUnits="userSpaceOnUse">
<stop offset="0.1324" stop-color="#F2E913"/>
<stop offset="0.2977" stop-color="#EBE716"/>
<stop offset="0.5306" stop-color="#D9E01F"/>
<stop offset="0.8023" stop-color="#BBD62D"/>
<stop offset="0.9829" stop-color="#A3CD39"/>
</linearGradient>
<linearGradient id="paint2_linear" x1="1.28992" y1="15.4214" x2="5.40962" y2="4.70454" gradientUnits="userSpaceOnUse">
<stop offset="0.0698" stop-color="#A3CD39"/>
<stop offset="0.2599" stop-color="#81C55F"/>
<stop offset="0.9216" stop-color="#0FA8E0"/>
</linearGradient>
<linearGradient id="paint3_linear" x1="5.09405" y1="25.1742" x2="1.30767" y2="14.2293" gradientUnits="userSpaceOnUse">
<stop offset="0.1444" stop-color="#F2E913"/>
<stop offset="0.3037" stop-color="#E7E518"/>
<stop offset="0.5823" stop-color="#CADB26"/>
<stop offset="0.891" stop-color="#A3CD39"/>
</linearGradient>
<linearGradient id="paint4_linear" x1="5.38224" y1="5.0074" x2="15.1344" y2="1.29107" gradientUnits="userSpaceOnUse">
<stop offset="0.0592" stop-color="#0FA8E0"/>
<stop offset="0.5385" stop-color="#0099F9"/>
<stop offset="0.9234" stop-color="#0291EB"/>
</linearGradient>
<linearGradient id="paint5_linear" x1="14.0214" y1="27.9117" x2="25.0494" y2="25.4192" gradientUnits="userSpaceOnUse">
<stop offset="0.1226" stop-color="#A3CD39"/>
<stop offset="0.2846" stop-color="#86C339"/>
<stop offset="0.8693" stop-color="#21A038"/>
</linearGradient>
</defs>
</svg>
