<svg width="297" height="57" viewBox="0 0 297 57" fill="none" xmlns="http://www.w3.org/2000/svg">
<rect width="297" height="57" rx="10" fill="#F1F1F1"/>
<path d="M96.54 35H94.5801V24.0312H88.2344V35H86.2568V22.3174H96.54V35ZM103.642 25.6045C104.819 25.6045 105.763 26.0352 106.472 26.8965C107.181 27.7578 107.535 28.918 107.535 30.377C107.535 31.8359 107.184 32.999 106.48 33.8662C105.777 34.7275 104.843 35.1582 103.677 35.1582C103.021 35.1582 102.438 35.0088 101.928 34.71C101.424 34.4111 101.037 34.001 100.768 33.4795H100.724V38.0586H98.8252V25.7539H100.662V27.3447H100.697C100.973 26.8057 101.368 26.3809 101.884 26.0703C102.399 25.7598 102.985 25.6045 103.642 25.6045ZM103.141 33.5498C103.891 33.5498 104.485 33.2656 104.925 32.6973C105.364 32.123 105.584 31.3496 105.584 30.377C105.584 29.4102 105.364 28.6396 104.925 28.0654C104.485 27.4912 103.891 27.2041 103.141 27.2041C102.414 27.2041 101.828 27.4941 101.383 28.0742C100.938 28.6543 100.715 29.4219 100.715 30.377C100.715 31.3379 100.935 32.1084 101.374 32.6885C101.819 33.2627 102.408 33.5498 103.141 33.5498ZM114.654 27.7842C114.238 27.3389 113.702 27.1162 113.046 27.1162C112.39 27.1162 111.845 27.3418 111.411 27.793C110.978 28.2383 110.737 28.8154 110.69 29.5244H115.313C115.29 28.8096 115.07 28.2295 114.654 27.7842ZM115.305 32.2842H117.106C116.972 33.1338 116.538 33.8281 115.806 34.3672C115.073 34.9062 114.18 35.1758 113.125 35.1758C111.771 35.1758 110.705 34.751 109.926 33.9014C109.152 33.0459 108.766 31.8857 108.766 30.4209C108.766 28.9678 109.152 27.7988 109.926 26.9141C110.705 26.0293 111.745 25.5869 113.046 25.5869C114.323 25.5869 115.337 26.0059 116.087 26.8438C116.837 27.6758 117.212 28.7949 117.212 30.2012V30.8516H110.682V30.9658C110.682 31.7744 110.907 32.4219 111.358 32.9082C111.81 33.3945 112.413 33.6377 113.169 33.6377C113.702 33.6377 114.159 33.5146 114.54 33.2686C114.921 33.0225 115.176 32.6943 115.305 32.2842ZM124.823 35V27.2568H120.728V35H118.838V25.7539H126.722V35H124.823ZM135.941 33.8926C135.145 34.748 134.081 35.1758 132.751 35.1758C131.421 35.1758 130.357 34.748 129.561 33.8926C128.764 33.0312 128.365 31.8594 128.365 30.377C128.365 28.9004 128.764 27.7344 129.561 26.8789C130.357 26.0176 131.421 25.5869 132.751 25.5869C134.081 25.5869 135.145 26.0176 135.941 26.8789C136.738 27.7344 137.137 28.9004 137.137 30.377C137.137 31.8594 136.738 33.0312 135.941 33.8926ZM132.751 33.6113C133.507 33.6113 134.104 33.3271 134.544 32.7588C134.983 32.1904 135.203 31.3965 135.203 30.377C135.203 29.3633 134.98 28.5723 134.535 28.0039C134.096 27.4355 133.501 27.1514 132.751 27.1514C132.001 27.1514 131.403 27.4355 130.958 28.0039C130.519 28.5723 130.299 29.3633 130.299 30.377C130.299 31.3965 130.519 32.1904 130.958 32.7588C131.403 33.3271 132.001 33.6113 132.751 33.6113ZM144.766 33.4971V27.2568H141.549L141.294 30.79C141.218 31.9736 140.978 32.8525 140.573 33.4268V33.4971H144.766ZM139.51 37.4258H137.761V33.4971H138.508C139.117 33.1162 139.475 32.1875 139.58 30.7109L139.914 25.7539H146.655V33.4971H148.088V37.4258H146.33V35H139.51V37.4258ZM152.614 33.6553C153.282 33.6553 153.842 33.4531 154.293 33.0488C154.75 32.6387 154.979 32.1348 154.979 31.5371V30.8076L152.702 30.9482C152.134 30.9893 151.694 31.1299 151.384 31.3701C151.079 31.6045 150.927 31.9209 150.927 32.3193C150.927 32.7236 151.079 33.0488 151.384 33.2949C151.694 33.5352 152.104 33.6553 152.614 33.6553ZM152.087 35.1582C151.179 35.1582 150.438 34.9004 149.863 34.3848C149.295 33.8691 149.011 33.1982 149.011 32.3721C149.011 31.5635 149.31 30.9219 149.907 30.4473C150.505 29.9668 151.352 29.6973 152.447 29.6387L154.979 29.4893V28.7773C154.979 28.2617 154.814 27.8604 154.486 27.5732C154.158 27.2803 153.704 27.1338 153.124 27.1338C152.585 27.1338 152.146 27.2539 151.806 27.4941C151.472 27.7344 151.261 28.0654 151.173 28.4873H149.38C149.433 27.6318 149.802 26.9346 150.487 26.3955C151.173 25.8564 152.075 25.5869 153.194 25.5869C154.313 25.5869 155.204 25.8623 155.866 26.4131C156.534 26.9639 156.868 27.7021 156.868 28.6279V35H155.049V33.4795H155.005C154.741 33.9893 154.34 34.3965 153.801 34.7012C153.268 35.0059 152.696 35.1582 152.087 35.1582ZM162.678 27.1338H160.735V29.5596H162.493C163.565 29.5596 164.102 29.1494 164.102 28.3291C164.102 27.9482 163.979 27.6553 163.732 27.4502C163.486 27.2393 163.135 27.1338 162.678 27.1338ZM162.616 30.8867H160.735V33.6201H162.827C163.366 33.6201 163.776 33.5059 164.058 33.2773C164.339 33.043 164.479 32.7031 164.479 32.2578C164.479 31.3438 163.858 30.8867 162.616 30.8867ZM158.863 35V25.7539H163.064C163.967 25.7539 164.673 25.9648 165.183 26.3867C165.698 26.8027 165.956 27.377 165.956 28.1094C165.956 28.5898 165.804 29.0234 165.499 29.4102C165.2 29.791 164.828 30.0225 164.383 30.1045V30.1748C164.98 30.2568 165.461 30.4941 165.824 30.8867C166.188 31.2734 166.369 31.7568 166.369 32.3369C166.369 33.1514 166.076 33.7988 165.49 34.2793C164.91 34.7598 164.119 35 163.117 35H158.863ZM171.3 33.6553C171.968 33.6553 172.527 33.4531 172.979 33.0488C173.436 32.6387 173.664 32.1348 173.664 31.5371V30.8076L171.388 30.9482C170.819 30.9893 170.38 31.1299 170.069 31.3701C169.765 31.6045 169.612 31.9209 169.612 32.3193C169.612 32.7236 169.765 33.0488 170.069 33.2949C170.38 33.5352 170.79 33.6553 171.3 33.6553ZM170.772 35.1582C169.864 35.1582 169.123 34.9004 168.549 34.3848C167.98 33.8691 167.696 33.1982 167.696 32.3721C167.696 31.5635 167.995 30.9219 168.593 30.4473C169.19 29.9668 170.037 29.6973 171.133 29.6387L173.664 29.4893V28.7773C173.664 28.2617 173.5 27.8604 173.172 27.5732C172.844 27.2803 172.39 27.1338 171.81 27.1338C171.271 27.1338 170.831 27.2539 170.491 27.4941C170.157 27.7344 169.946 28.0654 169.858 28.4873H168.065C168.118 27.6318 168.487 26.9346 169.173 26.3955C169.858 25.8564 170.761 25.5869 171.88 25.5869C172.999 25.5869 173.89 25.8623 174.552 26.4131C175.22 26.9639 175.554 27.7021 175.554 28.6279V35H173.734V33.4795H173.69C173.427 33.9893 173.025 34.3965 172.486 34.7012C171.953 35.0059 171.382 35.1582 170.772 35.1582ZM184.439 25.7539V27.2568H181.539V35H179.649V27.2568H176.749V25.7539H184.439ZM191.137 27.7842C190.721 27.3389 190.185 27.1162 189.528 27.1162C188.872 27.1162 188.327 27.3418 187.894 27.793C187.46 28.2383 187.22 28.8154 187.173 29.5244H191.796C191.772 28.8096 191.553 28.2295 191.137 27.7842ZM191.787 32.2842H193.589C193.454 33.1338 193.021 33.8281 192.288 34.3672C191.556 34.9062 190.662 35.1758 189.607 35.1758C188.254 35.1758 187.188 34.751 186.408 33.9014C185.635 33.0459 185.248 31.8857 185.248 30.4209C185.248 28.9678 185.635 27.7988 186.408 26.9141C187.188 26.0293 188.228 25.5869 189.528 25.5869C190.806 25.5869 191.819 26.0059 192.569 26.8438C193.319 27.6758 193.694 28.7949 193.694 30.2012V30.8516H187.164V30.9658C187.164 31.7744 187.39 32.4219 187.841 32.9082C188.292 33.3945 188.896 33.6377 189.651 33.6377C190.185 33.6377 190.642 33.5146 191.022 33.2686C191.403 33.0225 191.658 32.6943 191.787 32.2842ZM197.781 30.79C197.746 31.3408 197.69 31.8271 197.614 32.249C197.538 32.6709 197.427 33.0664 197.28 33.4355C197.134 33.7988 196.955 34.1006 196.744 34.3408C196.533 34.5752 196.27 34.7598 195.953 34.8945C195.643 35.0234 195.282 35.0879 194.872 35.0879C194.614 35.0879 194.4 35.0557 194.23 34.9912V33.3213C194.389 33.3682 194.556 33.3916 194.731 33.3916C195.153 33.3916 195.464 33.1631 195.663 32.7061C195.862 32.249 195.991 31.584 196.05 30.7109L196.366 25.7539H202.773V35H200.884V27.2568H198.036L197.781 30.79ZM208.302 30.0957H206.702V33.5059H208.302C208.847 33.5059 209.28 33.3506 209.603 33.04C209.931 32.7236 210.095 32.3105 210.095 31.8008C210.095 31.2852 209.931 30.8721 209.603 30.5615C209.274 30.251 208.841 30.0957 208.302 30.0957ZM204.812 35V25.7539H206.702V28.6104H208.469C209.541 28.6104 210.394 28.9004 211.026 29.4805C211.665 30.0547 211.984 30.8281 211.984 31.8008C211.984 32.7793 211.665 33.5586 211.026 34.1387C210.394 34.7129 209.541 35 208.469 35H204.812Z" fill="#282828"/>
</svg>
